<svg width="500" height="500" viewBox="0 0 500 500" fill="none" xmlns="http://www.w3.org/2000/svg">
<circle cx="250" cy="250" r="250" fill="#FDFFFC"/>
<path fill-rule="evenodd" clip-rule="evenodd" d="M188.83 172.339C194.299 166.871 203.041 166.746 208.356 172.061C213.671 177.376 213.546 186.118 208.077 191.587L114.523 285.141C106.531 293.134 106.349 305.91 114.117 313.678L186.78 386.342C194.548 394.11 207.325 393.928 215.318 385.935L240.006 361.247C245.475 355.779 254.216 355.654 259.532 360.969C264.846 366.284 264.722 375.026 259.253 380.495L234.565 405.183C215.635 424.113 185.374 424.543 166.976 406.146L94.3129 333.482C75.9147 315.084 76.3458 284.824 95.2759 265.894L188.83 172.339Z" fill="#1E96FC"/>
<path fill-rule="evenodd" clip-rule="evenodd" d="M311.629 328.119C306.16 333.588 297.418 333.712 292.103 328.397C286.788 323.082 286.912 314.341 292.381 308.872L385.935 215.318C393.928 207.325 394.11 194.548 386.342 186.78L313.678 114.117C305.91 106.349 293.133 106.531 285.141 114.523L260.453 139.211C254.984 144.68 246.243 144.804 240.928 139.489C235.613 134.174 235.737 125.433 241.206 119.964L265.894 95.2759C284.824 76.3457 315.084 75.9147 333.482 94.3129L406.146 166.976C424.543 185.374 424.113 215.635 405.183 234.565L311.629 328.119Z" fill="#011627"/>
</svg>
